<?xml version="1.0" standalone="no"?>
<!DOCTYPE svg PUBLIC "-//W3C//DTD SVG 1.1//EN" "http://www.w3.org/Graphics/SVG/1.1/DTD/svg11.dtd" >
<svg xmlns="http://www.w3.org/2000/svg" xmlns:xlink="http://www.w3.org/1999/xlink" version="1.1">
<metadata></metadata>
<defs>
<font id="charteritc_bd_btbold_italic" horiz-adv-x="1200" >
<font-face units-per-em="2048" ascent="1556" descent="-492" />
<missing-glyph horiz-adv-x="600" />
<glyph horiz-adv-x="0" />
<glyph unicode="&#xd;" horiz-adv-x="600" />
<glyph unicode=" "  horiz-adv-x="600" />
<glyph unicode="&#x09;" horiz-adv-x="600" />
<glyph unicode="&#xa0;" horiz-adv-x="600" />
<glyph unicode="!" horiz-adv-x="696" d="M88 123q0 70 52 122t120 52q58 0 97.5 -39.5t39.5 -97.5q0 -70 -52 -122t-122 -52q-56 0 -95.5 39.5t-39.5 97.5zM233 406l43 727q9 143 55 205.5t142 62.5q61 0 95 -32t34 -89q0 -23 -7 -56t-24 -87l-231 -731h-107z" />
<glyph unicode="&#x22;" horiz-adv-x="694" d="M84 1354q0 52 24.5 80t69.5 28q47 0 71.5 -27.5t24.5 -80.5q0 -16 -0.5 -24.5t-1.5 -15.5l-73 -458h-39l-74 459q-1 7 -1.5 15.5t-0.5 23.5zM420 1354q0 51 25.5 79.5t70.5 28.5t70.5 -28t25.5 -78q0 -13 -3 -36q-1 -4 -1 -5l-73 -459h-39l-74 458q-1 8 -1.5 16.5 t-0.5 23.5z" />
<glyph unicode="#" horiz-adv-x="1538" d="M117 453v125h327l91 276h-316v125h359l163 475l129 -37l-155 -438h282l158 473l131 -35l-156 -438h281v-125h-321l-95 -276h330v-125h-373l-166 -500l-129 33l156 467h-274l-168 -500l-129 33l161 467h-286zM582 578h272l96 276h-276z" />
<glyph unicode="$" d="M51 82l68 340h139l-8 -244l24 -18q44 -18 86.5 -29t81.5 -14l90 477q-165 62 -242 149t-77 209q0 168 134.5 288t342.5 132l31 152h106l-28 -149q82 -6 160 -21.5t153 -42.5l-68 -330h-131l9 231l-25 21q-29 10 -59 16.5t-64 9.5l-86 -456q169 -57 255.5 -144.5 t86.5 -201.5q0 -188 -136.5 -311.5t-369.5 -143.5l-39 -215h-108l41 215q-106 6 -197 26t-170 54zM446 1026q0 -66 35 -111.5t107 -74.5l82 420q-100 -11 -162 -76t-62 -158zM551 117q108 13 175 80t67 161q0 70 -41 123t-115 78z" />
<glyph unicode="%" horiz-adv-x="1839" d="M113 825q0 252 121 413t309 161q129 0 202.5 -80.5t73.5 -220.5q0 -243 -122 -401t-308 -158q-125 0 -200.5 78.5t-75.5 207.5zM291 0l1104 1374h153l-1102 -1374h-155zM303 801q0 -85 24 -126.5t72 -41.5q45 0 82 35t68 106q33 79 52.5 175t19.5 190q0 84 -24.5 126 t-74.5 42q-44 0 -81 -35.5t-66 -106.5q-35 -82 -53.5 -177t-18.5 -187zM1024 264q0 250 122 410t310 160q126 0 201.5 -78.5t75.5 -208.5q0 -251 -122 -411.5t-311 -160.5q-126 0 -201 78.5t-75 210.5zM1217 233q0 -83 23.5 -124t72.5 -41q45 0 81.5 34.5t67.5 106.5 q34 80 53 176.5t19 187.5q0 84 -25.5 127t-74.5 43q-44 0 -80 -34.5t-66 -106.5q-34 -81 -52.5 -177t-18.5 -192z" />
<glyph unicode="&#x26;" horiz-adv-x="1495" d="M41 324q0 134 89 239t259 170q-66 74 -97.5 142.5t-31.5 138.5q0 162 134 274.5t331 112.5q162 0 259 -80t97 -211q0 -129 -103 -227.5t-286 -141.5l273 -354q39 38 80 96.5t79 132.5l-18 35l-96 15v98h417v-98l-143 -21q-53 -92 -116 -177.5t-136 -164.5 q76 -110 149 -156.5t167 -46.5q5 0 15 1t15 1v-98l-120 -12q-29 -3 -55 -4.5t-48 -1.5q-93 0 -164.5 39.5t-136.5 126.5q-105 -88 -218 -133.5t-224 -45.5q-160 0 -265.5 100t-105.5 251zM299 399q0 -112 72.5 -185t183.5 -73q62 0 122.5 22.5t115.5 65.5l-338 430 q-79 -51 -117.5 -115t-38.5 -145zM500 1065q0 -53 31 -117t94 -141q109 53 166 130t57 173q0 82 -41 130t-111 48q-85 0 -140.5 -62.5t-55.5 -160.5z" />
<glyph unicode="'" horiz-adv-x="358" d="M84 1354q0 52 24.5 80t69.5 28q47 0 71.5 -27.5t24.5 -80.5q0 -16 -0.5 -24.5t-1.5 -15.5l-73 -458h-39l-74 459q-1 7 -1.5 15.5t-0.5 23.5z" />
<glyph unicode="(" horiz-adv-x="860" d="M135 301q0 134 28 282.5t83 303.5q41 119 106 219.5t154 183.5q90 86 199.5 131.5t232.5 48.5l-18 -104q-79 -8 -150.5 -50t-128.5 -114q-56 -72 -99.5 -160.5t-72.5 -193.5q-50 -175 -76 -333.5t-26 -283.5q0 -192 66.5 -299t193.5 -118l-21 -105q-222 3 -346.5 159 t-124.5 433z" />
<glyph unicode=")" horiz-adv-x="860" d="M-124 -291l18 105q78 6 150 48.5t128 114.5q61 78 105 171t73 202q47 174 71.5 329.5t24.5 274.5q0 188 -67.5 294.5t-192.5 117.5l21 104q221 -3 346 -157.5t125 -425.5q0 -129 -26.5 -275t-78.5 -299q-41 -127 -107.5 -232.5t-158.5 -191.5q-93 -86 -201.5 -131.5 t-229.5 -48.5z" />
<glyph unicode="*" horiz-adv-x="1024" d="M199 1169l157 56l189 -156l-17 -31l-266 2zM268 692l25 158l244 160l22 -19l-131 -256zM537 1346l118 124l76 -124l-129 -256h-33zM573 991l31 19l187 -160l-35 -158l-144 45zM621 1069l245 156l138 -54l-113 -131l-268 -4z" />
<glyph unicode="+" horiz-adv-x="1706" d="M254 528v166h514v527h170v-527h514v-166h-514v-528h-170v528h-514z" />
<glyph unicode="," horiz-adv-x="598" d="M-117 -358l17 94q118 21 187.5 92t84.5 186h-125q-11 16 -16.5 34.5t-5.5 41.5q0 75 47.5 124.5t120.5 49.5q70 0 110.5 -42t40.5 -116q0 -169 -132.5 -305t-328.5 -159z" />
<glyph unicode="-" horiz-adv-x="655" d="M20 393l37 201h518l-34 -201h-521z" />
<glyph unicode="." horiz-adv-x="602" d="M45 145q0 66 45.5 113t110.5 47q66 0 110.5 -46t44.5 -114q0 -66 -45 -111.5t-110 -45.5q-64 0 -110 46t-46 111z" />
<glyph unicode="/" horiz-adv-x="985" d="M-244 -190l1151 1564h168l-1149 -1564h-170z" />
<glyph unicode="0" d="M59 440q0 188 46.5 359t134.5 309q87 138 213.5 214.5t267.5 76.5q193 0 304.5 -127.5t111.5 -347.5q0 -187 -44 -354.5t-128 -301.5q-92 -145 -217.5 -219t-280.5 -74q-181 0 -294.5 129.5t-113.5 335.5zM322 362q0 -130 45.5 -198t132.5 -68q77 0 138.5 61t113.5 187 q59 148 92 325t33 351q0 131 -43.5 195.5t-131.5 64.5q-75 0 -138 -63t-115 -191q-60 -148 -93.5 -324t-33.5 -340z" />
<glyph unicode="1" d="M162 0v104l217 15l33 35l192 1022l-22 10l-291 -37v100l481 146h123l-236 -1248l21 -32l190 -11v-104h-708z" />
<glyph unicode="2" d="M-6 0l12 154q481 332 648 522.5t167 374.5q0 99 -57.5 157t-157.5 58q-26 0 -56.5 -5t-62.5 -14l-51 -278q-28 -15 -58.5 -23t-60.5 -8q-58 0 -91 33.5t-33 91.5q0 42 21.5 86.5t61.5 85.5q78 77 184.5 119.5t225.5 42.5q182 0 291.5 -95.5t109.5 -250.5 q0 -194 -194.5 -395.5t-622.5 -448.5h572l67 184h135l-71 -391h-979z" />
<glyph unicode="3" d="M25 221q0 64 41.5 108t103.5 44q19 0 41.5 -5.5t52.5 -17.5l25 -221q37 -17 65.5 -25t51.5 -8q152 0 248 92.5t96 239.5q0 103 -62.5 158t-177.5 55q-26 0 -58.5 -3t-70.5 -9l25 149q10 -1 21 -1.5t32 -0.5q166 0 265 81.5t99 215.5q0 90 -59.5 145.5t-157.5 55.5 q-26 0 -55 -6.5t-64 -20.5l-41 -241q-37 -17 -63.5 -24t-46.5 -7q-55 0 -90 34.5t-35 88.5q0 118 147 209.5t355 91.5q176 0 283.5 -83.5t107.5 -215.5t-110 -231.5t-300 -137.5q172 -11 256 -83t84 -208q0 -87 -49 -173.5t-137 -151.5q-88 -66 -201 -102t-233 -36 q-168 0 -278.5 71.5t-110.5 172.5z" />
<glyph unicode="4" d="M-4 369l33 161l831 854h201l-162 -854h227l-28 -161h-228l-84 -435h-233l80 435h-637zM219 530h447l114 582z" />
<glyph unicode="5" d="M41 213q0 61 41.5 101t105.5 40q23 0 43.5 -4.5t38.5 -13.5l31 -221q20 -10 44 -14.5t56 -4.5q158 0 260.5 100.5t102.5 249.5q0 121 -84.5 188.5t-235.5 67.5q-46 0 -100 -4t-139 -14l135 690h788l-38 -207h-631l-72 -348q77 21 140.5 31t117.5 10q175 0 281 -92.5 t106 -243.5q0 -229 -182 -386.5t-453 -157.5q-155 0 -255.5 66.5t-100.5 166.5z" />
<glyph unicode="6" d="M63 463q0 223 100 426.5t281 349.5q121 97 269.5 155.5t326.5 78.5l17 -130q-242 -21 -416 -156.5t-244 -357.5q84 53 164.5 79t161.5 26q170 0 267 -105t97 -288q0 -108 -47.5 -217t-130.5 -187q-83 -79 -187.5 -120.5t-219.5 -41.5q-204 0 -321.5 130t-117.5 358z M330 436q0 -157 57 -244.5t158 -87.5q115 0 196.5 111t81.5 272q0 142 -62.5 213.5t-187.5 71.5q-51 0 -102 -14t-102 -43q-19 -65 -29 -136t-10 -143z" />
<glyph unicode="7" d="M152 -70l837 1223h-586l-69 -203h-135l80 424h974l-20 -125l-854 -1263l-4 -56h-223z" />
<glyph unicode="8" d="M49 317q0 124 89 222.5t249 152.5q-91 49 -134.5 118t-43.5 163q0 182 148.5 307t369.5 125q184 0 290.5 -83t106.5 -224q0 -124 -77.5 -216t-229.5 -149q139 -68 198.5 -141t59.5 -170q0 -194 -162 -326.5t-407 -132.5q-214 0 -335.5 95t-121.5 259zM295 340 q0 -115 70 -182.5t188 -67.5q113 0 186.5 72t73.5 184q0 80 -62.5 138.5t-279.5 156.5q-89 -60 -132.5 -134.5t-43.5 -166.5zM463 1044q0 -77 56.5 -136.5t205.5 -131.5q79 51 123.5 131t44.5 170q0 95 -52 152t-139 57q-104 0 -171.5 -68t-67.5 -174z" />
<glyph unicode="9" d="M98 836q0 129 65.5 249t180.5 203q80 57 167 85t181 28q213 0 331 -118.5t118 -332.5q0 -358 -268.5 -648.5t-725.5 -420.5l-32 115q237 72 406.5 211t271.5 346q-105 -50 -183 -73t-145 -23q-160 0 -263.5 106.5t-103.5 272.5zM369 889q0 -130 64 -203.5t177 -73.5 q55 0 111.5 17.5t114.5 52.5q19 74 28.5 144t9.5 130q0 150 -58.5 236t-158.5 86q-114 0 -201 -115t-87 -274z" />
<glyph unicode=":" horiz-adv-x="709" d="M102 145q0 67 45 113.5t109 46.5q66 0 112 -46t46 -114q0 -65 -46.5 -111t-111.5 -46q-64 0 -109 46t-45 111zM225 838q0 65 45 111t109 46q65 0 111.5 -46t46.5 -111q0 -66 -46.5 -112t-111.5 -46q-64 0 -109 46t-45 112z" />
<glyph unicode=";" horiz-adv-x="709" d="M-49 -358l16 94q118 21 186.5 92t84.5 186h-123q-12 17 -18.5 36.5t-6.5 41.5q0 73 48.5 122.5t119.5 49.5t112.5 -42t41.5 -116q0 -169 -133 -305t-328 -159zM225 838q0 65 45 111t109 46q65 0 111.5 -46t46.5 -111q0 -66 -46.5 -112t-111.5 -46q-64 0 -109 46t-45 112z " />
<glyph unicode="&#x3c;" horiz-adv-x="1706" d="M264 530v160l1178 486v-185l-934 -381l934 -381v-182z" />
<glyph unicode="=" horiz-adv-x="1706" d="M254 322v165h1198v-165h-1198zM254 733v168h1198v-168h-1198z" />
<glyph unicode="&#x3e;" horiz-adv-x="1706" d="M264 47v182l934 381l-934 381v185l1178 -486v-160z" />
<glyph unicode="?" horiz-adv-x="1008" d="M152 121q0 70 51.5 123t120.5 53q58 0 96.5 -39.5t38.5 -97.5q0 -70 -52.5 -122t-123.5 -52q-54 0 -92.5 39.5t-38.5 95.5zM162 1147q0 104 117 178t292 74q182 0 287 -84.5t105 -231.5q0 -167 -132.5 -296t-384.5 -205l-34 -187h-133l51 277q176 57 272 164.5t96 246.5 q0 95 -57.5 146t-165.5 51h-6l-135 -231q-7 -1 -16 -1.5t-25 -0.5q-65 0 -98 25.5t-33 74.5z" />
<glyph unicode="@" horiz-adv-x="1917" d="M156 504q0 203 74.5 373.5t222.5 306.5q126 114 291 174.5t350 60.5q310 0 500 -181t190 -474q0 -113 -28.5 -215t-84.5 -189q-73 -112 -181.5 -178.5t-215.5 -66.5q-83 0 -123.5 40t-40.5 121q-82 -82 -155 -121.5t-142 -39.5q-114 0 -185 90.5t-71 238.5q0 96 29.5 185 t85.5 166q74 99 179 156t216 57q49 0 98.5 -14t102.5 -42l37 47h139q-22 -56 -47 -172q-6 -28 -8 -40l-76 -349q-10 -42 -14.5 -71t-4.5 -48q0 -33 19.5 -51t54.5 -18q47 0 92 24.5t82 71.5q65 81 101 189t36 223q0 252 -160 405.5t-425 153.5q-158 0 -292.5 -50 t-240.5 -149q-125 -116 -187.5 -262.5t-62.5 -325.5q0 -329 199 -530t524 -201q136 0 269 37t262 111l34 -80q-159 -89 -317 -134.5t-305 -45.5q-172 0 -323 58.5t-269 172.5q-114 109 -171.5 257t-57.5 329zM770 477q0 -108 39.5 -167.5t112.5 -59.5q46 0 94.5 35t99.5 104 l76 408l-76 108q-2 0 -5 1q-23 3 -34 3q-129 0 -218 -123.5t-89 -308.5z" />
<glyph unicode="A" horiz-adv-x="1298" d="M-139 0v100l114 15l719 1271h211l209 -1245l21 -26l118 -15v-100h-538v100l125 13l22 30l-57 340h-457l-188 -344l20 -30l121 -9v-100h-440zM410 596h374l-84 532z" />
<glyph unicode="B" horiz-adv-x="1286" d="M-47 0v100l131 11l31 30l207 1098l-23 29l-131 10v96h614q205 0 304.5 -65t99.5 -199q0 -137 -91.5 -234t-263.5 -143q156 -7 237 -79t81 -203q0 -217 -152 -334t-434 -117h-610zM369 115q28 -3 56.5 -4.5t55.5 -1.5q192 0 288.5 84t96.5 251q0 108 -70 160.5t-214 52.5 q-25 0 -53 -1.5t-58 -4.5zM489 768h6q47 -4 68 -4q164 0 254 83t90 234q0 95 -61.5 142t-186.5 47q-20 0 -67 -4h-10z" />
<glyph unicode="C" horiz-adv-x="1280" d="M76 557q0 149 48 285t144 258q112 141 280.5 221t352.5 80q96 0 195 -17.5t207 -52.5l-64 -346h-135l-2 223l-21 37q-40 15 -73.5 22t-61.5 7q-112 0 -205.5 -37.5t-165.5 -110.5q-102 -103 -158.5 -256t-56.5 -331q0 -208 106 -325.5t292 -117.5q28 0 57 3.5t60 11.5 l38 36l95 254h137l-66 -354q-107 -36 -213.5 -55t-206.5 -19q-265 0 -424 159.5t-159 424.5z" />
<glyph unicode="D" horiz-adv-x="1438" d="M-51 0v100l135 11l29 30l206 1094l-20 31l-131 10v98h553q127 0 214.5 -16t158.5 -51q118 -59 188 -178t70 -263q0 -189 -65 -354t-189 -291q-114 -113 -269 -167t-370 -54h-510zM371 117h84q153 0 262 49t184 151q75 104 118.5 248.5t43.5 292.5q0 192 -96 297t-273 105 h-110z" />
<glyph unicode="E" horiz-adv-x="1190" d="M-45 0v98l133 13l29 30l207 1090l-19 33l-131 10v100h1014l-62 -319h-131l-2 174l-22 31h-385l-92 -492h249l31 29l51 151h117l-90 -477h-111l4 154l-26 28h-248l-102 -534h462l29 28l78 220h135l-67 -367h-1051z" />
<glyph unicode="F" horiz-adv-x="1104" d="M-47 0v102l135 11l27 28l209 1098l-21 27l-133 10v98h995l-67 -344h-129l-4 201l-21 26h-360l-99 -512h244l37 25l53 154h117l-92 -482h-113l4 160l-28 25h-242l-92 -484l24 -30l138 -11l-9 -102h-573z" />
<glyph unicode="G" horiz-adv-x="1419" d="M78 553q0 207 88 385t248 295q117 84 251 127t281 43q106 0 207.5 -17.5t192.5 -50.5l-64 -350h-147l4 227l-25 39q-38 13 -73 19t-66 6q-112 0 -206.5 -34.5t-168.5 -102.5q-113 -103 -175.5 -257.5t-62.5 -334.5q0 -205 109.5 -324t298.5 -119q19 0 45.5 1.5t63.5 5.5 l77 424l-22 28l-139 12v101h579v-101l-129 -10l-31 -28l-92 -476q-122 -42 -236.5 -64t-217.5 -22q-271 0 -430.5 156.5t-159.5 421.5z" />
<glyph unicode="H" horiz-adv-x="1530" d="M-51 0v100l131 11l33 32l206 1092l-20 31l-127 10v98h565v-98l-133 -10l-26 -27l-86 -459h573l86 455l-27 31l-123 10v98h570v-98l-135 -10l-27 -27l-207 -1096l19 -30l131 -13v-100h-568v100l129 13l33 30l94 514h-573l-96 -514l22 -34l131 -9v-100h-575z" />
<glyph unicode="I" horiz-adv-x="723" d="M-41 0v100l135 11l31 30l207 1098l-21 29l-133 8v98h578v-98l-135 -8l-33 -29l-207 -1102l25 -28l133 -9v-100h-580z" />
<glyph unicode="J" horiz-adv-x="971" d="M-92 29l69 364h146l2 -278l27 -25h4q133 0 198.5 82.5t118.5 380.5l123 684l-21 31l-137 8v98h578v-98l-137 -12l-29 -33l-117 -682q-50 -297 -177.5 -436.5t-346.5 -139.5q-85 0 -160 14t-141 42z" />
<glyph unicode="K" horiz-adv-x="1337" d="M-53 0v100l131 11l31 30l206 1098l-20 29l-129 10v96h571v-96l-135 -10l-27 -29l-102 -537h62l514 529l-13 33l-127 14v96h512v-96l-164 -21l-479 -485l262 -524q46 -92 92.5 -122t129.5 -30q7 0 21 1t22 1l-1 -96q-106 -9 -160 -12.5t-83 -3.5q-106 0 -165.5 42 t-127.5 183l-186 389h-129l-84 -459l22 -32l127 -9v-100h-571z" />
<glyph unicode="L" horiz-adv-x="1083" d="M-51 0v98l127 13l33 26l206 1102l-20 29l-129 8v98h571v-98l-129 -10l-35 -27l-208 -1120h370l37 28l80 256h147l-77 -403h-973z" />
<glyph unicode="M" horiz-adv-x="1831" d="M-49 0v100l131 15l31 30l215 1088l-19 33l-135 8v100h528v-61l152 -948l500 954v55h514v-100l-131 -10l-31 -29l-197 -1094l21 -30l127 -11v-100h-553v100l135 13l29 28l196 1102l-649 -1243h-147l-195 1233l-213 -1094l25 -28l123 -11v-100h-457z" />
<glyph unicode="N" horiz-adv-x="1458" d="M-53 0v100l133 13l29 30l208 1096l-22 29l-131 10v96h452v-49l420 -993l174 907l-24 27l-133 12v96h469v-96l-131 -10l-33 -27l-232 -1241h-211l-471 1110l-184 -963l19 -34l135 -13v-100h-467z" />
<glyph unicode="O" horiz-adv-x="1493" d="M78 543q0 157 48 302t140 267q103 136 255.5 212.5t322.5 76.5q257 0 413 -155.5t156 -409.5q0 -157 -48.5 -302.5t-139.5 -267.5q-109 -142 -259 -217.5t-325 -75.5q-253 0 -408 157t-155 413zM360 524q0 -193 83.5 -309.5t220.5 -116.5q92 0 177 59.5t152 172.5 q62 103 96.5 240.5t34.5 281.5q0 200 -79.5 313t-219.5 113q-92 0 -175.5 -59t-149.5 -170q-66 -109 -103 -247t-37 -278z" />
<glyph unicode="P" horiz-adv-x="1190" d="M-49 0v100l131 11l31 28l206 1094l-20 35l-127 10v96h528q255 0 374.5 -83.5t119.5 -262.5q0 -233 -170 -376.5t-451 -143.5q-47 0 -76 1t-57 3l-69 -369l18 -34l135 -9v-100h-573zM461 627q10 -1 23 -1.5t36 -0.5q187 0 290 105t103 296q0 118 -69.5 177t-210.5 59 q-20 0 -30.5 -0.5t-20.5 -1.5z" />
<glyph unicode="Q" horiz-adv-x="1493" d="M74 545q0 160 57 315.5t162 280.5q104 124 249.5 192t307.5 68q251 0 406 -156t155 -407q0 -256 -116 -459t-328 -320q69 -143 127.5 -194t144.5 -51q38 0 90.5 11t112.5 32v-95q-118 -50 -205 -74t-154 -24q-123 0 -214 75.5t-166 239.5q-14 -1 -28 -1.5t-40 -0.5 q-96 0 -174 22.5t-144 68.5q-118 85 -180.5 208t-62.5 269zM365 555q0 -201 87 -321.5t230 -120.5q68 0 132.5 35.5t125.5 107.5q81 96 129.5 249.5t48.5 319.5q0 201 -83 320t-222 119q-70 0 -134.5 -36t-127.5 -110q-43 -49 -79 -122t-62 -162q-23 -77 -34 -146.5 t-11 -132.5z" />
<glyph unicode="R" horiz-adv-x="1321" d="M-45 0v98l129 13l31 26l209 1098l-23 31l-133 10v98h594q225 0 331.5 -71.5t106.5 -223.5q0 -161 -114.5 -270.5t-317.5 -140.5q103 -21 161 -88t115 -273q39 -140 83 -176.5t141 -36.5q4 0 13 1t13 1v-94q-51 -7 -98.5 -10.5t-89.5 -3.5q-68 0 -117 14t-86 43 q-88 71 -144 317q-10 44 -16 69q-20 83 -85 129t-164 46q-6 0 -16 -1t-15 -1l-88 -465l18 -28l137 -13v-98h-575zM486 721q10 -1 22 -1.5t37 -0.5q174 0 273.5 87.5t99.5 240.5q0 111 -69 163t-216 52q-7 0 -22 -1t-23 -1z" />
<glyph unicode="S" horiz-adv-x="1133" d="M47 92l55 332h136l-2 -244l14 -20q50 -21 95.5 -31t90.5 -10q126 0 207.5 68t81.5 169q0 66 -36 114t-169 126q-15 9 -46 26q-145 80 -212 144q-39 36 -59.5 88.5t-20.5 118.5q0 188 147 307t382 119q76 0 159 -14t172 -42l-55 -346h-123l4 226l-16 20q-33 18 -67.5 26.5 t-75.5 8.5q-123 0 -203 -65.5t-80 -161.5q0 -110 236 -244l22 -12q188 -107 242.5 -179t54.5 -176q0 -193 -155.5 -323.5t-391.5 -130.5q-104 0 -200.5 26.5t-186.5 79.5z" />
<glyph unicode="T" horiz-adv-x="1196" d="M76 1014l69 360h1139l-67 -360h-138l4 221l-28 27h-232l-211 -1121l23 -28l139 -11v-102h-590v102l142 9l28 32l207 1119h-231l-37 -27l-74 -221h-143z" />
<glyph unicode="U" horiz-adv-x="1436" d="M150 336q0 43 4.5 90t13.5 94l137 719l-24 27l-125 12v96h567v-96l-129 -10l-29 -25l-135 -715q-9 -45 -13.5 -82.5t-4.5 -66.5q0 -114 69 -179t191 -65q169 0 257 84.5t128 290.5l141 719l-20 35l-136 14v96h463v-96l-131 -14l-31 -29l-139 -721q-31 -165 -68.5 -245 t-99.5 -142q-75 -75 -190 -114.5t-260 -39.5q-212 0 -324 93.5t-112 269.5z" />
<glyph unicode="V" horiz-adv-x="1264" d="M55 1276v98h529v-98l-125 -8l-19 -33l152 -954l495 960l-14 27l-119 8v98h432v-98l-118 -14l-678 -1262h-199l-203 1235l-18 27z" />
<glyph unicode="W" horiz-adv-x="1886" d="M88 1276v98h524v-98l-125 -10l-22 -35l65 -854l459 997h197l104 -1016l383 879l-16 29l-119 10v98h434v-98l-129 -16l-559 -1260h-184l-109 1055l-487 -1055h-187l-96 1237l-20 25z" />
<glyph unicode="X" horiz-adv-x="1245" d="M-133 0v98l119 13l26 18l492 551l-252 567l-16 19l-130 12v96h562v-96l-125 -12l-23 -31l162 -375l332 379l-13 29l-114 10v96h461v-96l-134 -12l-471 -529l271 -612l18 -19l125 -8v-98h-567v98l131 11l24 30l-176 408l-362 -410l20 -28l129 -11v-98h-489z" />
<glyph unicode="Y" d="M53 1276v98h559v-98l-127 -12l-24 -29l174 -533l379 527l-19 33l-131 14v98h479v-98l-133 -16l-20 -19l-500 -676l-80 -426l23 -26l139 -13v-100h-582v100l138 13l32 32l74 392l-233 710l-19 17z" />
<glyph unicode="Z" horiz-adv-x="1171" d="M-35 0l6 102l891 1151h-436l-37 -20l-70 -223h-147l70 364h946l-6 -100l-893 -1153h493l33 29l78 251h145l-75 -401h-998z" />
<glyph unicode="[" horiz-adv-x="920" d="M104 -270l312 1720h551l-21 -115h-315l-271 -1493h316l-19 -112h-553z" />
<glyph unicode="\" horiz-adv-x="985" d="M43 1374h166l823 -1564h-162z" />
<glyph unicode="]" horiz-adv-x="920" d="M-86 -270l20 112h316l268 1495h-315l20 113h551l-309 -1720h-551z" />
<glyph unicode="^" horiz-adv-x="2048" d="M412 897l503 565h215l502 -565h-104l-506 397l-506 -397h-104z" />
<glyph unicode="_" horiz-adv-x="1024" d="M0 -311h1024v-172h-1024v172z" />
<glyph unicode="`" horiz-adv-x="1024" d="M336 1520h254l123 -390h-138z" />
<glyph unicode="a" horiz-adv-x="1171" d="M37 356q0 111 30.5 212.5t92.5 195.5q76 116 196.5 181t257.5 65q58 0 117 -12.5t121 -36.5l76 49h121q-13 -38 -31.5 -120t-38.5 -192l-62 -332q-9 -53 -13.5 -88.5t-4.5 -54.5q0 -52 25.5 -81t70.5 -29q23 0 53.5 5.5t71.5 16.5v-76q-109 -39 -182.5 -57t-126.5 -18 q-75 0 -114.5 39.5t-39.5 113.5v10q-85 -81 -167.5 -122t-157.5 -41q-139 0 -217 98.5t-78 273.5zM299 385q0 -115 39.5 -175t116.5 -60q45 0 95.5 23t111.5 73l96 542l-82 123q-4 0 -12.5 1t-14.5 1q-147 0 -248.5 -150.5t-101.5 -377.5z" />
<glyph unicode="b" horiz-adv-x="1139" d="M55 72l221 1259l-167 27v72l350 77h90q-18 -103 -27 -154t-16 -93l-72 -392q94 73 176 108.5t154 35.5q123 0 199.5 -101t76.5 -264q0 -141 -54 -273t-152 -231q-80 -79 -188.5 -120t-239.5 -41q-96 0 -183.5 22.5t-167.5 67.5zM309 137q33 -28 70.5 -42.5t77.5 -14.5 q126 0 225.5 159.5t99.5 376.5q0 117 -43.5 176.5t-128.5 59.5q-37 0 -83 -17.5t-105 -54.5z" />
<glyph unicode="c" horiz-adv-x="895" d="M33 373q0 111 34 213.5t101 193.5q76 104 198 167t246 63q106 0 166 -44.5t60 -121.5q0 -65 -46 -105.5t-125 -43.5l-130 208q-108 -30 -178 -165t-70 -318q0 -132 53 -204.5t150 -72.5q68 0 150 39.5t165 112.5v-121q-106 -94 -217 -144t-211 -50q-157 0 -251.5 107.5 t-94.5 285.5z" />
<glyph unicode="d" horiz-adv-x="1186" d="M43 362q0 106 28.5 206t84.5 186q81 124 204 193t263 69q44 0 88.5 -9t89.5 -26l57 350l-172 27v69l356 80h86l-190 -1141q-9 -53 -13.5 -90t-4.5 -59q0 -48 26 -76t70 -28q24 0 55.5 5.5t71.5 16.5v-76q-107 -39 -181 -57t-128 -18q-86 0 -127 41t-41 127v6 q-87 -86 -170.5 -130t-161.5 -44q-130 0 -210.5 103.5t-80.5 274.5zM301 387q0 -113 41 -176.5t115 -63.5q48 0 105 29.5t118 85.5l88 535l-86 123h-7q-26 4 -34 4q-132 0 -236 -159.5t-104 -377.5z" />
<glyph unicode="e" horiz-adv-x="950" d="M39 371q0 146 59.5 274t171.5 223q78 66 172 102t187 36q118 0 186 -60t68 -164q0 -150 -140.5 -234.5t-390.5 -84.5q-10 0 -31 1t-32 1q0 -2 -1 -7q-3 -37 -3 -55q0 -128 57 -198t162 -70q68 0 149.5 36.5t171.5 107.5l-4 -125q-110 -85 -216.5 -128.5t-203.5 -43.5 q-170 0 -266 103t-96 286zM306 551q158 7 264 79.5t106 168.5q0 48 -27.5 76t-73.5 28q-84 0 -156.5 -93.5t-112.5 -258.5z" />
<glyph unicode="f" horiz-adv-x="666" d="M-315 -315q0 49 20.5 82.5t61.5 50.5l219 -117q41 57 71.5 171.5t61.5 336.5l88 627l-137 -17l2 90l159 70q41 230 178.5 376t307.5 146q86 0 142 -40.5t56 -100.5q0 -48 -35.5 -85t-95.5 -50l-172 180q-44 -54 -82 -165t-69 -284h278v-120h-297l-75 -535 q-20 -142 -56 -253t-92 -202q-86 -136 -190.5 -210t-210.5 -74q-53 0 -93 37t-40 86z" />
<glyph unicode="g" horiz-adv-x="1059" d="M-61 -174q0 94 71.5 166.5t227.5 134.5v8q0 53 20 103t66 106q-114 30 -174 100t-60 172q0 166 130 279t325 113q63 0 126 -15t128 -45h280v-106h-209q11 -38 16 -66t5 -51q0 -171 -129 -282t-333 -113q-13 -20 -19.5 -39.5t-6.5 -38.5v-8l310 -148q100 -48 143 -99 t43 -122q0 -132 -159 -226.5t-394 -94.5q-185 0 -296 74.5t-111 197.5zM158 -121q0 -97 74 -160t190 -63q101 0 168 46.5t67 113.5q0 36 -31 69.5t-91 61.5l-246 112q-67 -35 -99 -79.5t-32 -100.5zM336 580q0 -75 29 -115.5t84 -40.5q78 0 141 100.5t63 235.5 q0 78 -28.5 118t-83.5 40q-78 0 -141.5 -102.5t-63.5 -235.5z" />
<glyph unicode="h" horiz-adv-x="1219" d="M41 0l268 1341l-178 21l-2 65l365 80h92q-14 -60 -31.5 -141t-44.5 -211l-70 -346q124 102 222.5 152.5t173.5 50.5q89 0 142.5 -53.5t53.5 -143.5q0 -29 -5.5 -69.5t-16.5 -96.5l-62 -282q-12 -56 -17 -91.5t-5 -58.5q0 -48 25 -76t69 -28q24 0 55.5 5.5t71.5 16.5v-76 q-98 -36 -174.5 -53.5t-134.5 -17.5q-82 0 -124 36.5t-42 108.5q0 20 4 47t12 62l74 340q9 43 13.5 78t4.5 59q0 56 -25.5 86.5t-72.5 30.5t-114.5 -35t-145.5 -101l-127 -700h-254z" />
<glyph unicode="i" horiz-adv-x="651" d="M59 860v74l351 76h90l-131 -692q-6 -32 -8.5 -52t-2.5 -33q0 -55 26 -83.5t75 -28.5q23 0 57.5 7t83.5 22v-84q-108 -41 -190 -60.5t-146 -19.5q-85 0 -125.5 38.5t-40.5 120.5q0 20 3.5 47.5t15.5 90.5l110 551zM293 1329q0 66 45 111t113 45q62 0 99.5 -35.5 t37.5 -95.5q0 -65 -45 -109.5t-111 -44.5q-62 0 -100.5 36t-38.5 93z" />
<glyph unicode="j" horiz-adv-x="608" d="M-299 -315q0 44 18 75.5t52 49.5l239 -97q40 51 69 150t62 321l97 650l-185 26v74l367 76h90l-111 -693q-37 -236 -81.5 -345t-120.5 -193q-97 -106 -188.5 -161.5t-168.5 -55.5q-63 0 -101 33.5t-38 89.5zM287 1327q0 65 45 109.5t112 44.5q64 0 101 -35.5t37 -95.5 q0 -65 -45 -109.5t-111 -44.5q-62 0 -100.5 36.5t-38.5 94.5z" />
<glyph unicode="k" horiz-adv-x="1145" d="M47 0l258 1343l-182 17v67l369 80h88l-199 -979l266 281q111 116 176 159.5t121 43.5q53 0 89 -39.5t36 -98.5q0 -62 -42.5 -108t-123.5 -70l-74 119q-62 -48 -112 -89.5t-76 -68.5l18 -42q215 -506 345 -506q22 0 48 3.5t60 12.5v-80q-101 -30 -174 -44.5t-117 -14.5 q-79 0 -129 44t-106 177l-129 299l-95 -103l-71 -403h-244z" />
<glyph unicode="l" horiz-adv-x="629" d="M70 133q0 18 3.5 46t10.5 63l203 1089l-168 27v72l350 77h90l-213 -1140v-2q-22 -107 -22 -148q0 -48 25 -76t69 -28q29 0 67.5 7.5t87.5 22.5v-80q-124 -43 -199.5 -62t-121.5 -19q-88 0 -135 39t-47 112z" />
<glyph unicode="m" horiz-adv-x="1808" d="M66 854v72l348 84h80l-39 -201q109 98 210.5 149.5t184.5 51.5q89 0 138 -49.5t54 -144.5q110 94 208 144t173 50q94 0 148.5 -54.5t54.5 -148.5q0 -27 -4 -58.5t-12 -74.5l-66 -307q-12 -56 -17 -91.5t-5 -58.5q0 -48 25 -76t69 -28q24 0 55.5 5.5t71.5 16.5v-76 q-98 -36 -174.5 -53.5t-134.5 -17.5q-82 0 -124 36.5t-42 108.5q0 19 3.5 44.5t12.5 64.5l78 362q8 37 12 66t4 53q0 55 -26 84t-76 29q-51 0 -116 -34t-126 -93l-121 -709h-251l118 616q9 44 12 65t3 38q0 56 -26.5 86.5t-76.5 30.5q-46 0 -110 -32.5t-138 -92.5l-125 -711 h-249l159 829z" />
<glyph unicode="n" horiz-adv-x="1229" d="M53 854v68l361 88h80l-41 -203q125 102 224 152.5t175 50.5q90 0 143.5 -54.5t53.5 -146.5q0 -30 -5.5 -69.5t-17.5 -92.5l-61 -280q-12 -50 -17.5 -88t-5.5 -64q0 -47 25.5 -74.5t68.5 -27.5q24 0 55.5 5.5t71.5 16.5v-78q-92 -34 -170.5 -51.5t-138.5 -17.5 q-81 0 -123.5 37t-42.5 108q0 28 14 96q2 9 3 13l73 339q9 45 14 79t5 57q0 56 -26.5 87.5t-74.5 31.5q-45 0 -110.5 -35t-145.5 -101l-121 -700h-260l164 831z" />
<glyph unicode="o" horiz-adv-x="1126" d="M39 403q0 122 47 237.5t131 203.5q77 80 179 123t214 43q192 0 304 -113.5t112 -308.5q0 -125 -46 -240.5t-132 -204.5q-77 -80 -178.5 -123t-214.5 -43q-192 0 -304 115.5t-112 310.5zM303 371q0 -141 44.5 -214t129.5 -73q119 0 202 150.5t83 375.5q0 147 -44.5 220 t-133.5 73q-118 0 -199.5 -151.5t-81.5 -380.5z" />
<glyph unicode="p" horiz-adv-x="1157" d="M-129 -367l125 35l18 27l201 1147l-160 24v68l342 76h90l-28 -140q88 72 170 107t159 35q125 0 200 -97.5t75 -261.5q0 -146 -46 -265t-140 -218q-79 -83 -185.5 -129.5t-218.5 -46.5q-37 0 -77 8t-83 25l-61 -357l190 -37v-79h-571v79zM332 144q36 -18 71.5 -26.5 t69.5 -8.5q139 0 236.5 149t97.5 369q0 108 -42.5 167.5t-119.5 59.5q-44 0 -94 -21t-107 -63z" />
<glyph unicode="q" horiz-adv-x="1151" d="M49 362q0 132 40.5 248t117.5 207q81 96 187.5 147.5t226.5 51.5q52 0 110 -12t123 -35l92 47h109l-9 -45q-43 -234 -61 -344l-164 -961l185 -33v-79h-576v79l127 27l23 29l79 446q-90 -75 -168 -111t-149 -36q-136 0 -214.5 100t-78.5 274zM301 391q0 -117 45.5 -179 t130.5 -62q46 0 94.5 21.5t108.5 68.5l92 551l-88 126q-7 2 -15 2.5t-24 0.5q-62 0 -116 -30.5t-101 -92.5q-55 -72 -91 -185t-36 -221z" />
<glyph unicode="r" horiz-adv-x="920" d="M53 856v70l353 84h71l-57 -275q95 132 186 203.5t164 71.5q67 0 109.5 -42.5t42.5 -109.5q0 -76 -55.5 -125t-143.5 -49h-4l-55 156q-120 -50 -184.5 -136t-88.5 -229l-80 -475h-252l164 831z" />
<glyph unicode="s" horiz-adv-x="825" d="M-25 195q0 55 34.5 91t86.5 36q35 0 64.5 -12t52.5 -36l-37 -149q36 -25 70 -37t67 -12q67 0 110.5 42t43.5 105q0 96 -140 189l-30 20q-118 82 -157.5 134.5t-39.5 115.5q0 139 116.5 233.5t289.5 94.5q109 0 172 -41t63 -111q0 -55 -39.5 -90t-105.5 -37l-96 184 q-18 3 -27 4t-16 1q-64 0 -106 -34t-42 -83q0 -37 31.5 -74.5t132.5 -110.5q141 -101 179 -160.5t38 -138.5q0 -141 -116.5 -240t-286.5 -99q-137 0 -224.5 61t-87.5 154z" />
<glyph unicode="t" horiz-adv-x="750" d="M80 844v74l176 88l135 225h133l-47 -262h281v-119h-303l-93 -502q-6 -33 -9 -59t-3 -43q0 -64 30.5 -96.5t90.5 -32.5q35 0 78.5 9t99.5 28v-82q-125 -45 -213 -66.5t-141 -21.5q-97 0 -147 49.5t-50 144.5q0 27 4 61t11 71l102 540z" />
<glyph unicode="u" horiz-adv-x="1227" d="M57 858v64l355 75h77l-118 -612q-9 -46 -13 -75t-4 -46q0 -54 28 -82t81 -28q46 0 110 25t136 73l139 721l244 24l-121 -630l-2 -9q-21 -104 -21 -141q0 -48 26 -76t70 -28q24 0 55.5 5.5t71.5 16.5v-76q-117 -41 -194.5 -60t-126.5 -19q-75 0 -114.5 41t-39.5 118v19 q-115 -87 -211.5 -132.5t-165.5 -45.5q-97 0 -153.5 53.5t-56.5 144.5q0 32 3 63.5t9 59.5l100 533z" />
<glyph unicode="v" horiz-adv-x="1008" d="M-16 868v66l323 76q50 -15 72.5 -53t32.5 -154l51 -582q90 111 162 220.5t125 215.5l-48 304q30 24 62.5 36.5t64.5 12.5q64 0 101 -37.5t37 -102.5q0 -119 -149 -347.5t-421 -522.5h-176q12 37 17.5 66.5t5.5 56.5q0 4 -1 13t-1 14l-43 425q-14 129 -24.5 186t-24.5 83z " />
<glyph unicode="w" horiz-adv-x="1573" d="M-4 866v68l293 78h94l41 -748q120 221 204 387.5t150 313.5l192 16q8 -158 19 -356.5t27 -429.5q114 153 185 264.5t104 189.5l-50 307q26 28 58 42t69 14q60 0 97 -40t37 -104q0 -110 -114.5 -300t-416.5 -568h-176l-41 707q-85 -166 -179.5 -340.5t-203.5 -366.5h-192 l18 63l-45 779z" />
<glyph unicode="x" horiz-adv-x="1044" d="M-78 131q0 51 36 91t95 54l88 -108q67 46 129 123.5t111 179.5q-48 154 -84 245.5t-59 121.5l-187 14v70l281 90h14q70 0 112.5 -65t102.5 -302q98 180 185 266t172 86q56 0 92.5 -37t36.5 -94q0 -55 -35 -96t-97 -59l-79 108q-60 -26 -117.5 -96t-110.5 -180l10 -34 q112 -398 242 -398q24 0 50 3t63 11v-80q-97 -30 -161.5 -43.5t-109.5 -13.5q-109 0 -170 81t-106 296q-105 -193 -190 -279t-168 -86q-60 0 -103 38.5t-43 92.5z" />
<glyph unicode="y" horiz-adv-x="1012" d="M-162 -287q0 51 33 89t88 51l137 -129q69 6 145.5 88.5t159.5 240.5h-77l-123 649q-8 42 -21 81t-30 73l-179 16v68l316 72q60 -13 95 -82.5t60 -233.5l70 -446q89 224 164 405.5t149 356.5h64l162 -56v-55l-121 -67q-92 -123 -214 -400t-186 -391q-136 -245 -264.5 -365 t-253.5 -120q-72 0 -123 46t-51 109z" />
<glyph unicode="z" horiz-adv-x="952" d="M-41 55l670 721l-178 -37q-54 39 -99 57.5t-84 18.5q-32 0 -58.5 -11t-47.5 -34l119 -137q-23 -42 -54.5 -64t-68.5 -22q-46 0 -73.5 35.5t-27.5 95.5q0 37 13.5 79t38.5 83q49 83 118 128.5t144 45.5q72 0 182 -55q36 -18 53 -25q32 -13 58.5 -19t52.5 -6q11 0 17 0.5 t11 1.5l48 117l151 -94l-678 -713l178 49q60 -44 108 -65t89 -21q33 0 63.5 13t57.5 39l-131 147q21 44 51.5 67t67.5 23q50 0 84 -40.5t34 -100.5q0 -55 -24.5 -114t-69.5 -112q-50 -57 -106 -83.5t-127 -26.5q-67 0 -181 42t-161 42q-9 0 -21 -1.5t-26 -4.5l-50 -103z" />
<glyph unicode="{" horiz-adv-x="997" d="M68 539l22 116h41q138 0 203.5 57.5t93.5 205.5l33 172q38 192 155 273t359 81h51l-20 -104q-149 -5 -214.5 -58.5t-93.5 -198.5l-24 -127q-31 -161 -120 -246.5t-253 -111.5q125 -22 185.5 -83t60.5 -167q0 -22 -2.5 -48.5t-7.5 -55.5l-29 -150q-7 -35 -10.5 -65.5 t-3.5 -53.5q0 -74 51.5 -107.5t167.5 -33.5l-21 -108q-11 0 -32 -1t-31 -1q-203 0 -289 57t-86 190q0 23 4 55.5t12 77.5l33 166q6 33 9 60.5t3 50.5q0 84 -47.5 121t-158.5 37h-41z" />
<glyph unicode="|" horiz-adv-x="1024" d="M424 -483v2048h178v-2048h-178z" />
<glyph unicode="}" horiz-adv-x="997" d="M-68 -274l23 108q149 2 213 53.5t94 206.5l29 150q31 157 121 243.5t250 110.5q-125 20 -184.5 79.5t-59.5 164.5q0 23 3 52t9 62l25 127q8 42 11 65.5t3 43.5q0 73 -55.5 109.5t-167.5 38.5l20 104h41q217 0 308.5 -56t91.5 -186q0 -20 -3.5 -49t-9.5 -63l-32 -172 q-9 -49 -12 -71t-3 -38q0 -81 49 -118.5t154 -37.5q7 0 22 1t23 1l-23 -116q-8 0 -23 1t-22 1q-132 0 -197 -59t-95 -212l-33 -166q-42 -210 -154.5 -295t-347.5 -85q-10 0 -32.5 1t-35.5 1z" />
<glyph unicode="~" horiz-adv-x="1706" d="M178 434v187q106 72 202 107.5t185 35.5q62 0 125.5 -12t168.5 -48q13 -4 42 -15q164 -58 250 -58q85 0 177 37t202 116v-184q-103 -71 -197.5 -106t-183.5 -35q-44 0 -92.5 8.5t-98.5 26.5q-25 8 -76 26q-212 74 -319 74q-82 0 -174 -38t-211 -122z" />
<glyph unicode="&#xa2;" d="M94 428q0 248 167.5 419t436.5 195l39 205h111l-39 -203q103 -7 173 -22t114 -37l-54 -266h-124l4 182q-32 17 -64.5 26t-68.5 11l-156 -827q36 1 74.5 10t78.5 24l60 185h131l-55 -279q-76 -24 -152.5 -36.5t-156.5 -14.5l-42 -211h-110l39 215q-189 24 -297.5 137.5 t-108.5 286.5zM342 412q0 -123 47 -198.5t137 -98.5l154 817q-150 -30 -244 -174.5t-94 -345.5z" />
<glyph unicode="&#xa3;" d="M-23 0l19 154q133 24 197.5 124t89.5 334h-142l15 123h139q21 310 166 479.5t387 169.5q130 0 216.5 -60.5t86.5 -147.5q0 -62 -45.5 -99t-122.5 -37q-16 0 -24 0.5t-15 2.5l-80 237h-14q-132 0 -205 -131t-98 -414h368l-16 -123h-371q-18 -142 -87 -242.5t-191 -164.5 l6 -12q52 6 103 9t102 3h543l-25 -205h-1002z" />
<glyph unicode="&#xa5;" horiz-adv-x="1231" d="M20 479v101h429l-66 194h-307v103h264l-125 370l-115 21v100h539v-100l-125 -13l-22 -22l174 -518l362 499l-8 33l-100 21v100h413v-100l-123 -23l-272 -368h260v-103h-344l-143 -194h428v-101h-441l-59 -338l29 -30l135 -11v-100h-600v100l145 11l43 30l60 338h-431z " />
<glyph unicode="&#xa8;" horiz-adv-x="1024" d="M283 1319q0 57 37.5 96t91.5 39q53 0 92 -40t39 -95t-38.5 -94t-92.5 -39q-53 0 -91 39t-38 94zM705 1319q0 56 38 95.5t93 39.5q54 0 92.5 -39.5t38.5 -95.5q0 -55 -38.5 -94t-92.5 -39t-92.5 39t-38.5 94z" />
<glyph unicode="&#xa9;" horiz-adv-x="1831" d="M129 696q0 160 59.5 303.5t171.5 257.5t259.5 175t308.5 61q158 0 307 -62.5t260 -175.5q108 -109 167.5 -258t59.5 -309q0 -155 -63 -301t-180 -262q-113 -112 -256.5 -169.5t-307.5 -57.5q-151 0 -295.5 61t-257.5 174q-114 113 -173.5 257t-59.5 306zM227 696 q0 -145 52.5 -271.5t152.5 -225.5q104 -103 229 -155t265 -52q142 0 267.5 53t223.5 154q100 103 153.5 231.5t53.5 265.5q0 141 -53.5 272t-151.5 228q-98 98 -227 152.5t-264 54.5q-139 0 -268 -54.5t-228 -154.5q-100 -104 -152.5 -230.5t-52.5 -267.5zM442 694 q0 214 144 348t375 134q74 0 146.5 -13t145.5 -39v-247h-108l-31 161q-31 19 -62.5 28t-66.5 9q-141 0 -229 -105t-88 -274q0 -171 87.5 -278t225.5 -107q31 0 63.5 8t71.5 25l31 174h106v-256q-73 -25 -150.5 -38t-158.5 -13q-221 0 -361.5 135.5t-140.5 347.5z" />
<glyph unicode="&#xab;" horiz-adv-x="922" d="M20 406l33 172l412 292l-31 -170l-264 -208l186 -209l-30 -170zM432 406l33 172l412 292l-31 -170l-264 -208l186 -209l-31 -170z" />
<glyph unicode="&#xad;" horiz-adv-x="655" d="M20 393l37 201h518l-34 -201h-521z" />
<glyph unicode="&#xae;" horiz-adv-x="1831" d="M129 696q0 160 59.5 303.5t171.5 257.5t259.5 175t308.5 61q158 0 307 -62.5t260 -175.5q108 -109 167.5 -258t59.5 -309q0 -155 -63 -301t-180 -262q-113 -112 -256.5 -169.5t-307.5 -57.5q-151 0 -295.5 61t-257.5 174q-114 113 -173.5 257t-59.5 306zM227 705 q0 -149 50 -274.5t149 -225.5q104 -106 230 -159.5t270 -53.5q141 0 266 52.5t225 154.5q100 101 153.5 230t53.5 267q0 137 -52 266.5t-147 227.5q-98 101 -228.5 157t-268.5 56q-140 0 -268.5 -54t-227.5 -155q-98 -98 -151.5 -225.5t-53.5 -263.5zM510 1073v72h459 q160 0 241.5 -56t81.5 -165q0 -92 -63 -151.5t-185 -80.5q146 -27 213 -208q8 -23 13 -36q25 -70 61.5 -95t110.5 -25h10v-78q-44 -6 -74.5 -9t-50.5 -3q-51 0 -91 10t-73 31q-65 40 -103 165q-11 34 -18 52q-29 80 -75 112.5t-127 32.5h-25v-295l119 -22v-76h-418v76 l107 22v703zM815 728q8 -2 16.5 -2.5t26.5 -0.5q109 0 166 43t57 125t-58.5 127t-166.5 45q-7 0 -20.5 -1t-20.5 -1v-335z" />
<glyph unicode="&#xb4;" horiz-adv-x="1024" d="M508 1130l274 390h252l-389 -390h-137z" />
<glyph unicode="&#xb8;" horiz-adv-x="1024" d="M121 -438l18 96q34 -8 65 -12t58 -4q68 0 104.5 24t36.5 68q0 24 -21 37.5t-58 13.5q-13 0 -41 -4h-4l43 227h100l-22 -114q6 1 12.5 1.5t19.5 0.5q69 0 104 -30.5t35 -90.5q0 -100 -82 -168t-206 -68q-38 0 -78 5.5t-84 17.5z" />
<glyph unicode="&#xbb;" horiz-adv-x="922" d="M-27 113l31 170l264 209l-186 208l31 170l305 -292l-33 -172zM385 113l31 170l264 209l-186 208l30 170l305 -292l-30 -172z" />
<glyph unicode="&#xd3;" horiz-adv-x="1493" d="M78 543q0 157 48 302t140 267q103 136 255.5 212.5t322.5 76.5q257 0 413 -155.5t156 -409.5q0 -157 -48.5 -302.5t-139.5 -267.5q-109 -142 -259 -217.5t-325 -75.5q-253 0 -408 157t-155 413zM360 524q0 -193 83.5 -309.5t220.5 -116.5q92 0 177 59.5t152 172.5 q62 103 96.5 240.5t34.5 281.5q0 200 -79.5 313t-219.5 113q-92 0 -175.5 -59t-149.5 -170q-66 -109 -103 -247t-37 -278zM766 1499l276 318h269l-391 -318h-154z" />
<glyph unicode="&#xf3;" horiz-adv-x="1126" d="M39 403q0 122 47 237.5t131 203.5q77 80 179 123t214 43q192 0 304 -113.5t112 -308.5q0 -125 -46 -240.5t-132 -204.5q-77 -80 -178.5 -123t-214.5 -43q-192 0 -304 115.5t-112 310.5zM303 371q0 -141 44.5 -214t129.5 -73q119 0 202 150.5t83 375.5q0 147 -44.5 220 t-133.5 73q-118 0 -199.5 -151.5t-81.5 -380.5zM559 1130l274 390h252l-389 -390h-137z" />
<glyph unicode="&#x106;" horiz-adv-x="1280" d="M76 557q0 149 48 285t144 258q112 141 280.5 221t352.5 80q96 0 195 -17.5t207 -52.5l-64 -346h-135l-2 223l-21 37q-40 15 -73.5 22t-61.5 7q-112 0 -205.5 -37.5t-165.5 -110.5q-102 -103 -158.5 -256t-56.5 -331q0 -208 106 -325.5t292 -117.5q28 0 57 3.5t60 11.5 l38 36l95 254h137l-66 -354q-107 -36 -213.5 -55t-206.5 -19q-265 0 -424 159.5t-159 424.5zM778 1499l276 318h269l-391 -318h-154z" />
<glyph unicode="&#x107;" horiz-adv-x="895" d="M33 373q0 111 34 213.5t101 193.5q76 104 198 167t246 63q106 0 166 -44.5t60 -121.5q0 -65 -46 -105.5t-125 -43.5l-130 208q-108 -30 -178 -165t-70 -318q0 -132 53 -204.5t150 -72.5q68 0 150 39.5t165 112.5v-121q-106 -94 -217 -144t-211 -50q-157 0 -251.5 107.5 t-94.5 285.5zM492 1130l274 390h252l-389 -390h-137z" />
<glyph unicode="&#x141;" horiz-adv-x="1083" d="M-51 0v98l127 13l33 26l84 451l-134 -76l-45 100l205 117l96 510l-20 29l-129 10v96h571v-96l-129 -12l-35 -27l-67 -358l201 112l53 -98l-279 -154l-116 -622h370l37 28l80 256h147l-77 -403h-973z" />
<glyph unicode="&#x142;" horiz-adv-x="629" d="M-33 647l211 113l113 577l-178 23v67l360 80h90q-9 -55 -28 -155q-7 -37 -11 -56l-75 -395l184 96l45 -90l-254 -133l-78 -408q-1 -5 -3 -16q-19 -99 -19 -133q0 -48 25 -76t69 -28q29 0 67.5 7.5t87.5 22.5v-80q-120 -42 -198.5 -61.5t-128.5 -19.5q-83 0 -125.5 46.5 t-42.5 137.5q0 24 2 46t6 44l70 381l-148 -82z" />
<glyph unicode="&#x2c6;" horiz-adv-x="1024" d="M283 1130l301 390h178l151 -390h-157l-109 256l-205 -256h-159z" />
<glyph unicode="&#x2da;" horiz-adv-x="1024" d="M410 1364q0 98 66.5 164.5t164.5 66.5q99 0 166 -66.5t67 -164.5q0 -97 -67.5 -165.5t-165.5 -68.5q-96 0 -163.5 68.5t-67.5 165.5zM512 1364q0 -54 38.5 -92.5t90.5 -38.5q53 0 92 39t39 92q0 54 -38 91.5t-93 37.5q-53 0 -91 -37.5t-38 -91.5z" />
<glyph unicode="&#x2dc;" horiz-adv-x="1024" d="M270 1167q18 133 79 206t153 73q65 0 157.5 -48t120.5 -48q43 0 69.5 32.5t35.5 96.5h108q-19 -132 -79 -204.5t-150 -72.5q-73 0 -165.5 47t-115.5 47q-40 0 -66 -33t-35 -96h-112z" />
<glyph unicode="&#x2000;" horiz-adv-x="908" />
<glyph unicode="&#x2001;" horiz-adv-x="1817" />
<glyph unicode="&#x2002;" horiz-adv-x="908" />
<glyph unicode="&#x2003;" horiz-adv-x="1817" />
<glyph unicode="&#x2004;" horiz-adv-x="605" />
<glyph unicode="&#x2005;" horiz-adv-x="454" />
<glyph unicode="&#x2006;" horiz-adv-x="302" />
<glyph unicode="&#x2007;" horiz-adv-x="302" />
<glyph unicode="&#x2008;" horiz-adv-x="227" />
<glyph unicode="&#x2009;" horiz-adv-x="363" />
<glyph unicode="&#x200a;" horiz-adv-x="100" />
<glyph unicode="&#x2010;" horiz-adv-x="655" d="M20 393l37 201h518l-34 -201h-521z" />
<glyph unicode="&#x2011;" horiz-adv-x="655" d="M20 393l37 201h518l-34 -201h-521z" />
<glyph unicode="&#x2012;" horiz-adv-x="655" d="M20 393l37 201h518l-34 -201h-521z" />
<glyph unicode="&#x2013;" horiz-adv-x="1024" d="M-51 401l33 185h1038l-35 -185h-1036z" />
<glyph unicode="&#x2014;" horiz-adv-x="2048" d="M-45 401l35 185h2058l-29 -185h-2064z" />
<glyph unicode="&#x2018;" horiz-adv-x="535" d="M156 971q0 135 105 261.5t282 197.5l32 -60q-117 -65 -178 -143.5t-67 -171.5h123q11 -17 16.5 -36.5t5.5 -39.5q0 -72 -48.5 -121t-119.5 -49q-70 0 -110.5 43t-40.5 119z" />
<glyph unicode="&#x2019;" horiz-adv-x="535" d="M131 870q118 66 179.5 144.5t66.5 168.5l-123 1q-11 17 -17 36t-6 37q0 73 48.5 123t119.5 50q69 0 110.5 -44.5t41.5 -117.5q0 -135 -105.5 -261.5t-281.5 -197.5z" />
<glyph unicode="&#x201a;" horiz-adv-x="535" d="M-111 -295q117 64 179 143.5t67 171.5l-123 1q-11 17 -16.5 35.5t-5.5 37.5q0 72 48 121t120 49q69 0 110 -43t41 -117q0 -136 -105 -263t-280 -197z" />
<glyph unicode="&#x201c;" horiz-adv-x="985" d="M160 973q0 134 105.5 260t281.5 197l31 -62q-118 -64 -179.5 -142.5t-66.5 -170.5l125 -1q11 -17 16.5 -35t5.5 -38q0 -73 -49 -122.5t-121 -49.5q-69 0 -109 44t-40 120zM610 971q0 135 105.5 261.5t281.5 197.5l33 -62q-117 -64 -178 -142.5t-68 -170.5l126 -1 q10 -16 16 -35t6 -38q0 -72 -49.5 -122t-120.5 -50q-69 0 -110.5 44t-41.5 118z" />
<glyph unicode="&#x201d;" horiz-adv-x="985" d="M131 870q117 64 179 143t67 170l-123 1q-12 19 -17.5 38t-5.5 38q0 70 49 120t119 50q69 0 110.5 -44.5t41.5 -117.5q0 -135 -105.5 -261.5t-281.5 -197.5zM584 870q117 64 179 143.5t66 170.5h-124q-11 18 -16 36.5t-5 39.5q0 70 48.5 120t119.5 50q69 0 110.5 -44.5 t41.5 -117.5q0 -135 -105.5 -261.5t-282.5 -197.5z" />
<glyph unicode="&#x201e;" horiz-adv-x="985" d="M-104 -295q117 65 178 143.5t67 171.5l-123 1q-11 18 -16.5 36t-5.5 37q0 72 48.5 121t119.5 49q69 0 110 -43t41 -117q0 -135 -105.5 -262.5t-281.5 -197.5zM348 -295q118 64 179.5 143.5t66.5 171.5h-123q-12 16 -17 33.5t-5 38.5q0 73 48 122.5t119 49.5t111.5 -42.5 t40.5 -117.5q0 -135 -105.5 -262.5t-281.5 -197.5z" />
<glyph unicode="&#x2026;" horiz-adv-x="2048" d="M70 145q0 69 47.5 116.5t113.5 47.5q68 0 116 -48t48 -116q0 -67 -48 -114t-116 -47q-66 0 -113.5 47t-47.5 114zM754 145q0 69 46.5 116.5t112.5 47.5q68 0 116 -48t48 -116q0 -67 -48 -114t-116 -47q-66 0 -112.5 47t-46.5 114zM1436 145q0 69 46.5 116.5t112.5 47.5 q68 0 116 -48t48 -116q0 -67 -48 -114t-116 -47q-66 0 -112.5 47t-46.5 114z" />
<glyph unicode="&#x202f;" horiz-adv-x="363" />
<glyph unicode="&#x2039;" horiz-adv-x="545" d="M20 406l33 172l412 292l-31 -170l-264 -208l186 -209l-30 -170z" />
<glyph unicode="&#x203a;" horiz-adv-x="545" d="M-27 113l31 170l264 209l-186 208l31 170l305 -292l-33 -172z" />
<glyph unicode="&#x205f;" horiz-adv-x="454" />
<glyph unicode="&#x20ac;" d="M-12 502l41 102h155q2 9 5.5 38t7.5 47q4 28 10.5 56t13.5 54h-180l39 102h174q95 250 250.5 374t372.5 124q93 0 175 -17t187 -59l-59 -332h-136v219l-24 35q-42 20 -81.5 29.5t-80.5 9.5q-118 0 -194.5 -86.5t-139.5 -296.5h410l-41 -102h-395q-3 -12 -14 -49.5 t-15 -61.5q-4 -18 -7.5 -46.5t-4.5 -36.5l342 -1l-43 -102h-311q-4 -31 -5.5 -60t-1.5 -55q0 -149 53.5 -222t161.5 -73q40 0 74.5 5.5t69.5 17.5l37 30l96 246h135l-61 -342q-132 -43 -219 -58.5t-187 -15.5q-206 0 -314 128.5t-108 371.5v27h-188z" />
<glyph unicode="&#x2122;" horiz-adv-x="1673" d="M233 1204v152h480v-152h-60l-16 90l-14 11h-93v-424l74 -15v-49h-264v49l74 13v426h-90l-17 -11l-12 -90h-62zM768 817v49l66 13v413l-66 13v51h233v-27l125 -350l125 350v27h232v-51l-68 -13v-413l68 -13v-49h-240v49l60 13v415l-175 -477h-61l-170 477v-415l64 -13v-49 h-193z" />
<glyph unicode="&#x25fc;" horiz-adv-x="1010" d="M0 0v1010h1010v-1010h-1010z" />
</font>
</defs>
</svg>
